#Comment line ignore any data following # character 
#Hierarchical Translation and Rotation (.htr) file 
[Header]	
#Header keywords are followed by a single value 
FileType HTR		#Single word string
DataType HTRS		#Translation followed by rotation and scale data
FileVersion 1		#integer
NumSegments 84		#integer
NumFrames 2		#integer
DataFrameRate 30		#integer, data frame rate in this file
EulerRotationOrder ZYX
CalibrationUnits mm
RotationUnits Degrees
GlobalAxisofGravity Y
BoneLengthAxis Y
ScaleFactor 1.00
[SegmentNames&Hierarchy]
#CHILD	PARENT
MASTER GLOBAL
root MASTER
chest root
L_mid_tent01 root
R_mid_tent01 root
spine01 root
Bip01_Neck chest
L_humerus chest
R_humerus chest
weapon_bone chest
Bip01_Head Bip01_Neck
eye_left_bone Bip01_Head
eye_right_bone Bip01_Head
L_forearm L_humerus
L_front_hand L_forearm
L_weapon_bone L_forearm
L_front_hand01_01 L_front_hand
L_front_hand02_01 L_front_hand
L_front_hand03_01 L_front_hand
L_front_hand01_02 L_front_hand01_01
L_front_hand02_02 L_front_hand02_01
L_front_hand03_02 L_front_hand03_01
R_forearm R_humerus
R_front_hand R_forearm
R_weapon_bone R_forearm
R_front_hand01_01 R_front_hand
R_front_hand02_01 R_front_hand
R_front_hand03_01 R_front_hand
R_front_hand01_02 R_front_hand01_01
R_front_hand02_02 R_front_hand02_01
R_front_hand03_02 R_front_hand03_01
null_rope01_connect L_mid_tent01
Rope1_Seg01 null_rope01_connect
Rope1_Seg02 Rope1_Seg01
Rope1_Seg03 Rope1_Seg02
Rope1_Seg04 Rope1_Seg03
Rope1_Seg05 Rope1_Seg04
Rope1_Seg06 Rope1_Seg05
Rope1_Seg07 Rope1_Seg06
Rope1_Seg09 Rope1_Seg07
L_mid_hand01 Rope1_Seg09
L_mid_hand02 Rope1_Seg09
L_mid_hand03 Rope1_Seg09
null_rope02_connect R_mid_tent01
Rope2_Seg01 null_rope02_connect
Rope2_Seg02 Rope2_Seg01
Rope2_Seg03 Rope2_Seg02
Rope2_Seg04 Rope2_Seg03
Rope2_Seg05 Rope2_Seg04
Rope2_Seg06 Rope2_Seg05
Rope2_Seg07 Rope2_Seg06
Rope2_Seg09 Rope2_Seg07
R_mid_hand01 Rope2_Seg09
R_mid_hand02 Rope2_Seg09
R_mid_hand03 Rope2_Seg09
spine02 spine01
spine03 spine02
pelvis spine03
null_rope03_connect pelvis
null_rope04_connect pelvis
Rope3_Seg01 null_rope03_connect
Rope3_Seg02 Rope3_Seg01
Rope3_Seg03 Rope3_Seg02
Rope3_Seg04 Rope3_Seg03
Rope3_Seg05 Rope3_Seg04
Rope3_Seg06 Rope3_Seg05
Rope3_Seg07 Rope3_Seg06
Rope3_Seg08 Rope3_Seg07
Rope3_Seg09 Rope3_Seg08
R_rear_hand01 Rope3_Seg09
R_rear_hand02 Rope3_Seg09
R_rear_hand03 Rope3_Seg09
Rope4_Seg01 null_rope04_connect
Rope4_Seg02 Rope4_Seg01
Rope4_Seg03 Rope4_Seg02
Rope4_Seg04 Rope4_Seg03
Rope4_Seg05 Rope4_Seg04
Rope4_Seg06 Rope4_Seg05
Rope4_Seg07 Rope4_Seg06
Rope4_Seg08 Rope4_Seg07
Rope4_Seg09 Rope4_Seg08
L_rear_hand01 Rope4_Seg09
L_rear_hand02 Rope4_Seg09
L_rear_hand03 Rope4_Seg09
[BasePosition]
#SegmentName Tx, Ty, Tz, Rx, Ry, Rz, BoneLength
MASTER 0.000000 0.000000 0.000000 -90.000000 0.000000 0.000000 10.000000 
root 0.000000 0.000000 0.000000 0.000000 0.000000 0.000000 10.000000 
chest 0.000000 0.000000 0.000000 0.000000 0.000000 0.000000 10.000000 
L_mid_tent01 0.000000 0.000000 0.000000 0.000000 0.000000 0.000000 10.000000 
R_mid_tent01 0.000000 0.000000 0.000000 0.000000 0.000000 0.000000 10.000000 
spine01 0.000000 0.000000 0.000000 0.000000 0.000000 0.000000 10.000000 
Bip01_Neck 0.000000 0.000000 0.000000 0.000000 0.000000 0.000000 10.000000 
L_humerus 0.000000 0.000000 0.000000 0.000000 0.000000 0.000000 10.000000 
R_humerus 0.000000 0.000000 0.000000 0.000000 0.000000 0.000000 10.000000 
weapon_bone 0.000000 0.000000 0.000000 0.000000 0.000000 0.000000 10.000000 
Bip01_Head 0.000000 0.000000 0.000000 0.000000 0.000000 0.000000 10.000000 
eye_left_bone 0.000000 0.000000 0.000000 0.000000 0.000000 0.000000 10.000000 
eye_right_bone 0.000000 0.000000 0.000000 0.000000 0.000000 0.000000 10.000000 
L_forearm 0.000000 0.000000 0.000000 0.000000 0.000000 0.000000 10.000000 
L_front_hand 0.000000 0.000000 0.000000 0.000000 0.000000 0.000000 10.000000 
L_weapon_bone 0.000000 0.000000 0.000000 0.000000 0.000000 0.000000 10.000000 
L_front_hand01_01 0.000000 0.000000 0.000000 0.000000 0.000000 0.000000 10.000000 
L_front_hand02_01 0.000000 0.000000 0.000000 0.000000 0.000000 0.000000 10.000000 
L_front_hand03_01 0.000000 0.000000 0.000000 0.000000 0.000000 0.000000 10.000000 
L_front_hand01_02 0.000000 0.000000 0.000000 0.000000 0.000000 0.000000 10.000000 
L_front_hand02_02 0.000000 0.000000 0.000000 0.000000 0.000000 0.000000 10.000000 
L_front_hand03_02 0.000000 0.000000 0.000000 0.000000 0.000000 0.000000 10.000000 
R_forearm 0.000000 0.000000 0.000000 0.000000 0.000000 0.000000 10.000000 
R_front_hand 0.000000 0.000000 0.000000 0.000000 0.000000 0.000000 10.000000 
R_weapon_bone 0.000000 0.000000 0.000000 0.000000 0.000000 0.000000 10.000000 
R_front_hand01_01 0.000000 0.000000 0.000000 0.000000 0.000000 0.000000 10.000000 
R_front_hand02_01 0.000000 0.000000 0.000000 0.000000 0.000000 0.000000 10.000000 
R_front_hand03_01 0.000000 0.000000 0.000000 0.000000 0.000000 0.000000 10.000000 
R_front_hand01_02 0.000000 0.000000 0.000000 0.000000 0.000000 0.000000 10.000000 
R_front_hand02_02 0.000000 0.000000 0.000000 0.000000 0.000000 0.000000 10.000000 
R_front_hand03_02 0.000000 0.000000 0.000000 0.000000 0.000000 0.000000 10.000000 
null_rope01_connect 0.000000 0.000000 0.000000 0.000000 0.000000 0.000000 10.000000 
Rope1_Seg01 0.000000 0.000000 0.000000 0.000000 0.000000 0.000000 10.000000 
Rope1_Seg02 0.000000 0.000000 0.000000 0.000000 0.000000 0.000000 10.000000 
Rope1_Seg03 0.000000 0.000000 0.000000 0.000000 0.000000 0.000000 10.000000 
Rope1_Seg04 0.000000 0.000000 0.000000 0.000000 0.000000 0.000000 10.000000 
Rope1_Seg05 0.000000 0.000000 0.000000 0.000000 0.000000 0.000000 10.000000 
Rope1_Seg06 0.000000 0.000000 0.000000 0.000000 0.000000 0.000000 10.000000 
Rope1_Seg07 0.000000 0.000000 0.000000 0.000000 0.000000 0.000000 10.000000 
Rope1_Seg09 0.000000 0.000000 0.000000 0.000000 0.000000 0.000000 10.000000 
L_mid_hand01 0.000000 0.000000 0.000000 0.000000 0.000000 0.000000 10.000000 
L_mid_hand02 0.000000 0.000000 0.000000 0.000000 0.000000 0.000000 10.000000 
L_mid_hand03 0.000000 0.000000 0.000000 0.000000 0.000000 0.000000 10.000000 
null_rope02_connect 0.000000 0.000000 0.000000 0.000000 0.000000 0.000000 10.000000 
Rope2_Seg01 0.000000 0.000000 0.000000 0.000000 0.000000 0.000000 10.000000 
Rope2_Seg02 0.000000 0.000000 0.000000 0.000000 0.000000 0.000000 10.000000 
Rope2_Seg03 0.000000 0.000000 0.000000 0.000000 0.000000 0.000000 10.000000 
Rope2_Seg04 0.000000 0.000000 0.000000 0.000000 0.000000 0.000000 10.000000 
Rope2_Seg05 0.000000 0.000000 0.000000 0.000000 0.000000 0.000000 10.000000 
Rope2_Seg06 0.000000 0.000000 0.000000 0.000000 0.000000 0.000000 10.000000 
Rope2_Seg07 0.000000 0.000000 0.000000 0.000000 0.000000 0.000000 10.000000 
Rope2_Seg09 0.000000 0.000000 0.000000 0.000000 0.000000 0.000000 10.000000 
R_mid_hand01 0.000000 0.000000 0.000000 0.000000 0.000000 0.000000 10.000000 
R_mid_hand02 0.000000 0.000000 0.000000 0.000000 0.000000 0.000000 10.000000 
R_mid_hand03 0.000000 0.000000 0.000000 0.000000 0.000000 0.000000 10.000000 
spine02 0.000000 0.000000 0.000000 0.000000 0.000000 0.000000 10.000000 
spine03 0.000000 0.000000 0.000000 0.000000 0.000000 0.000000 10.000000 
pelvis 0.000000 0.000000 0.000000 0.000000 0.000000 0.000000 10.000000 
null_rope03_connect 0.000000 0.000000 0.000000 0.000000 0.000000 0.000000 10.000000 
null_rope04_connect 0.000000 0.000000 0.000000 0.000000 0.000000 0.000000 10.000000 
Rope3_Seg01 0.000000 0.000000 0.000000 0.000000 0.000000 0.000000 10.000000 
Rope3_Seg02 0.000000 0.000000 0.000000 0.000000 0.000000 0.000000 10.000000 
Rope3_Seg03 0.000000 0.000000 0.000000 0.000000 0.000000 0.000000 10.000000 
Rope3_Seg04 0.000000 0.000000 0.000000 0.000000 0.000000 0.000000 10.000000 
Rope3_Seg05 0.000000 0.000000 0.000000 0.000000 0.000000 0.000000 10.000000 
Rope3_Seg06 0.000000 0.000000 0.000000 0.000000 0.000000 0.000000 10.000000 
Rope3_Seg07 0.000000 0.000000 0.000000 0.000000 0.000000 0.000000 10.000000 
Rope3_Seg08 0.000000 0.000000 0.000000 0.000000 0.000000 0.000000 10.000000 
Rope3_Seg09 0.000000 0.000000 0.000000 0.000000 0.000000 0.000000 10.000000 
R_rear_hand01 0.000000 0.000000 0.000000 0.000000 0.000000 0.000000 10.000000 
R_rear_hand02 0.000000 0.000000 0.000000 0.000000 0.000000 0.000000 10.000000 
R_rear_hand03 0.000000 0.000000 0.000000 0.000000 0.000000 0.000000 10.000000 
Rope4_Seg01 0.000000 0.000000 0.000000 0.000000 0.000000 0.000000 10.000000 
Rope4_Seg02 0.000000 0.000000 0.000000 0.000000 0.000000 0.000000 10.000000 
Rope4_Seg03 0.000000 0.000000 0.000000 0.000000 0.000000 0.000000 10.000000 
Rope4_Seg04 0.000000 0.000000 0.000000 0.000000 0.000000 0.000000 10.000000 
Rope4_Seg05 0.000000 0.000000 0.000000 0.000000 0.000000 0.000000 10.000000 
Rope4_Seg06 0.000000 0.000000 0.000000 0.000000 0.000000 0.000000 10.000000 
Rope4_Seg07 0.000000 0.000000 0.000000 0.000000 0.000000 0.000000 10.000000 
Rope4_Seg08 0.000000 0.000000 0.000000 0.000000 0.000000 0.000000 10.000000 
Rope4_Seg09 0.000000 0.000000 0.000000 0.000000 0.000000 0.000000 10.000000 
L_rear_hand01 0.000000 0.000000 0.000000 0.000000 0.000000 0.000000 10.000000 
L_rear_hand02 0.000000 0.000000 0.000000 0.000000 0.000000 0.000000 10.000000 
L_rear_hand03 0.000000 0.000000 0.000000 0.000000 0.000000 0.000000 10.000000 
#Beginning of Data. Separated by tabs
#Fr	Tx	Ty	Tz	Rx	Ry	Rz	SF
[MASTER]
18 -0.000318 2125.000000 0.000000 0.001660 0.001660 0.001660 2125.000000
19 -0.000337 2250.000488 0.000000 0.001660 0.001660 0.001660 2250.000488
[root]
18 -27.297016 -68.315277 1465.749023 -91.728897 -11.584496 -89.471619 1467.593994
19 -29.379095 -66.006615 1468.580688 -91.728889 -11.584497 -89.471619 1470.356812
[chest]
18 -84.512650 -34.090519 0.000000 -2.187781 -0.128360 166.558105 91.129311
19 -84.512650 -34.090519 0.000000 -2.186395 -0.125517 166.611191 91.129311
[L_mid_tent01]
18 27.299118 22.179258 -249.918686 -20.348190 7.076598 14.861932 252.381683
19 27.299120 22.179258 -249.918686 -20.346714 7.042943 14.872849 252.381683
[R_mid_tent01]
18 23.228794 24.509907 226.238495 -165.751678 -8.912793 26.460672 228.744751
19 23.228794 24.509907 226.238495 -165.755508 -8.857837 26.477034 228.744751
[spine01]
18 -0.361383 -0.195265 0.000000 0.001955 0.001298 22.838421 0.410763
19 -0.361383 -0.195265 0.000000 0.001955 0.001299 22.808153 0.410763
[Bip01_Neck]
18 165.484543 71.581718 0.000119 176.643677 -1.657967 43.431911 180.302734
19 165.484543 71.581718 0.000119 176.643677 -1.657967 43.431911 180.302734
[L_humerus]
18 -13.983130 -135.272980 -120.471481 178.545166 9.262629 -89.941154 181.680161
19 -13.983130 -135.272980 -120.471481 178.366165 6.302867 -90.029968 181.680161
[R_humerus]
18 -13.983309 -135.273102 125.287651 -177.591156 -12.709252 -85.415619 184.909012
19 -13.983309 -135.273102 125.287651 -177.260010 -9.911736 -85.704460 184.909012
[weapon_bone]
18 235.964890 -300.705902 0.000000 0.000000 -89.951546 -128.212341 382.234833
19 235.964890 -300.705902 0.000000 0.000000 -89.951546 -128.212341 382.234833
[Bip01_Head]
18 213.666992 185.095139 19.784952 4.969605 3.777089 -43.894218 283.381775
19 213.673691 185.076370 20.027470 4.962489 2.797837 -43.898743 283.391632
[eye_left_bone]
18 -24.626970 125.451866 -64.772606 0.000000 -90.000000 -99.840431 143.318359
19 -24.626970 125.451866 -64.772606 0.000000 -90.000000 -99.840431 143.318359
[eye_right_bone]
18 -24.626970 125.451866 64.327362 0.000000 -89.965736 80.156380 143.117676
19 -24.626970 125.451866 64.327362 0.000000 -89.965736 80.156380 143.117676
[L_forearm]
18 322.776093 0.000000 -0.000119 0.000430 -0.002307 -111.119781 322.776093
19 322.776093 0.000000 -0.000119 0.000429 -0.002308 -111.057785 322.776093
[L_front_hand]
18 241.149185 -0.042021 -3.300071 -178.667953 -1.835447 -27.422350 241.171753
19 241.149185 -0.042021 -3.300071 -178.667953 -1.835447 -27.422350 241.171753
[L_weapon_bone]
18 156.183838 0.000000 0.000000 0.000014 0.000007 0.000001 156.183838
19 156.183838 0.000000 0.000000 0.000014 0.000007 0.000001 156.183838
[L_front_hand01_01]
18 86.095154 20.947098 -0.655860 -0.289102 -0.524108 66.611076 88.609184
19 86.095154 20.947098 -0.655860 -0.291918 -0.522544 67.227623 88.609184
[L_front_hand02_01]
18 86.935165 -11.437475 24.513514 142.580521 -55.269005 -47.395390 91.046425
19 86.935165 -11.437475 24.513514 143.299149 -55.645802 -48.269920 91.046425
[L_front_hand03_01]
18 86.637497 -14.123976 -20.424902 -142.879883 53.494282 -49.391994 90.126129
19 86.637497 -14.123976 -20.424902 -143.556351 53.862476 -50.232788 90.126129
[L_front_hand01_02]
18 71.020905 -0.000179 0.000030 0.000315 -0.002326 -105.441971 71.020905
19 71.020905 -0.000179 0.000030 0.000316 -0.002326 -105.462708 71.020905
[L_front_hand02_02]
18 71.020927 -0.000119 0.000060 0.000315 -0.002326 -105.441971 71.020927
19 71.020927 -0.000119 0.000060 0.000316 -0.002326 -105.462708 71.020927
[L_front_hand03_02]
18 71.020905 -0.000060 0.000060 0.000315 -0.002326 -105.441971 71.020905
19 71.020905 -0.000060 0.000060 0.000316 -0.002326 -105.462708 71.020905
[R_forearm]
18 322.776428 -0.000060 0.000030 0.201109 0.068162 -109.770760 322.776428
19 322.776428 -0.000060 0.000030 0.201138 0.068078 -109.722389 322.776428
[R_front_hand]
18 238.847015 -0.006795 2.210259 -2.635298 -10.645461 -26.312506 238.857239
19 238.847015 -0.006795 2.210259 -2.635298 -10.645461 -26.312506 238.857239
[R_weapon_bone]
18 155.664093 0.002503 -0.000030 0.003487 0.001180 -90.988930 155.664078
19 155.664093 0.002503 -0.000030 0.003487 0.001180 -90.988930 155.664078
[R_front_hand01_01]
18 87.624611 14.231146 22.918642 -140.217056 -53.925083 44.603291 91.683487
19 87.624611 14.231146 22.918642 -141.470367 -54.661602 46.147430 91.683487
[R_front_hand02_01]
18 89.356956 14.367283 -19.491137 140.984955 52.347897 47.247559 92.579636
19 89.356956 14.367283 -19.491137 142.182632 53.068485 48.753605 92.579636
[R_front_hand03_01]
18 87.286232 -22.307278 -0.143439 0.075044 -0.448119 -64.698715 90.091743
19 87.286232 -22.307278 -0.143439 0.083738 -0.444647 -65.861671 90.091743
[R_front_hand01_02]
18 71.020905 0.000060 0.000119 0.002323 -0.000334 106.381714 71.020905
19 71.020905 0.000060 0.000119 0.002323 -0.000334 106.381714 71.020905
[R_front_hand02_02]
18 71.020844 -0.000030 -0.000119 0.002323 -0.000334 106.381714 71.020836
19 71.020844 -0.000030 -0.000119 0.002323 -0.000334 106.381714 71.020836
[R_front_hand03_02]
18 71.020905 0.000000 0.000030 0.002323 -0.000334 106.381714 71.020905
19 71.020905 0.000000 0.000030 0.002323 -0.000334 106.381714 71.020905
[null_rope01_connect]
18 328.732483 0.000000 -0.000238 -166.343124 -66.912033 -108.085007 328.732483
19 328.732483 0.000000 -0.000238 -166.420227 -66.923691 -108.010124 328.732483
[Rope1_Seg01]
18 -0.000016 -0.000152 0.000088 102.176071 -3.871431 -87.028290 0.000176
19 -0.000017 -0.000158 0.000084 101.164093 -3.692457 -88.182098 0.000180
[Rope1_Seg02]
18 139.999863 -0.000179 0.000000 -1.120619 1.897141 -3.519631 139.999863
19 139.999863 -0.000179 0.000000 -0.943878 2.213732 -3.598628 139.999863
[Rope1_Seg03]
18 139.999924 0.000060 -0.000060 -1.911348 1.277667 -4.215374 139.999924
19 139.999924 0.000060 -0.000060 -2.112537 1.280470 -4.475223 139.999924
[Rope1_Seg04]
18 139.999924 -0.000060 -0.000119 0.064881 2.788881 -2.891152 139.999924
19 139.999924 -0.000060 -0.000119 0.568015 3.518903 -2.831277 139.999924
[Rope1_Seg05]
18 139.999832 0.000119 -0.000060 2.309625 2.669584 1.163863 139.999832
19 139.999832 0.000119 -0.000060 3.078833 3.647763 1.515454 139.999832
[Rope1_Seg06]
18 139.999954 0.000119 -0.000060 0.740494 1.048854 0.206280 139.999954
19 139.999954 0.000119 -0.000060 0.949565 1.379395 0.265350 139.999954
[Rope1_Seg07]
18 139.999985 0.000060 0.000000 0.372715 0.600017 0.023392 139.999985
19 139.999985 0.000060 0.000000 0.481783 0.791109 0.054443 139.999985
[Rope1_Seg09]
18 121.602913 0.000119 -0.000089 -89.793175 -1.359789 0.847147 121.602913
19 121.602913 0.000119 -0.000089 -89.793175 -1.359789 0.847147 121.602913
[L_mid_hand01]
18 103.859421 1.038730 8.195221 129.242493 -66.931091 -37.458961 104.187431
19 103.859421 1.038730 8.195221 130.544373 -67.584534 -38.866943 104.187431
[L_mid_hand02]
18 105.572853 -4.139662 -10.864139 -168.136536 43.236561 -72.353096 106.211075
19 105.572853 -4.139662 -10.864139 -168.923172 43.409309 -73.498886 106.211075
[L_mid_hand03]
18 104.641464 17.579376 -3.913581 -6.285013 17.719217 74.000862 106.179977
19 104.641464 17.579376 -3.913581 -6.012627 17.808174 74.893669 106.179977
[null_rope02_connect]
18 328.732849 0.000179 -0.000119 -161.082458 74.800507 -54.997105 328.732849
19 328.732849 0.000179 -0.000119 -161.255554 74.836105 -55.162193 328.732849
[Rope2_Seg01]
18 0.000093 -0.000064 0.000000 -44.545906 -4.492043 -90.301743 0.000112
19 0.000093 -0.000074 0.000000 -44.680984 -4.948955 -89.270859 0.000119
[Rope2_Seg02]
18 139.999741 -0.000060 -0.000119 1.662514 9.402348 -1.469640 139.999756
19 139.999741 -0.000060 -0.000119 1.306367 9.773520 -2.160323 139.999756
[Rope2_Seg03]
18 140.000107 0.000030 0.000000 1.877281 9.891743 -0.297599 140.000107
19 140.000107 0.000030 0.000000 1.566012 9.704966 -0.868112 140.000107
[Rope2_Seg04]
18 139.999802 0.000000 -0.000060 -0.991995 -0.770240 -2.306549 139.999802
19 139.999802 0.000000 -0.000060 -0.916315 0.130380 -2.462606 139.999802
[Rope2_Seg05]
18 139.999985 -0.000060 0.000119 -1.790956 -5.005377 -2.148145 139.999985
19 139.999985 -0.000060 0.000119 -1.506500 -3.983390 -2.034584 139.999985
[Rope2_Seg06]
18 139.999893 -0.000030 -0.000119 -0.772772 -1.453941 -0.948108 139.999893
19 139.999893 -0.000030 -0.000119 -0.637944 -1.051943 -0.907498 139.999893
[Rope2_Seg07]
18 139.999893 0.000060 -0.000060 -0.508339 -0.831914 -0.602992 139.999893
19 139.999893 0.000060 -0.000060 -0.415806 -0.584031 -0.574881 139.999893
[Rope2_Seg09]
18 121.338966 0.000089 -0.000060 33.793236 -1.359788 -0.847141 121.338966
19 121.338966 0.000089 -0.000060 33.793236 -1.359788 -0.847141 121.338966
[R_mid_hand01]
18 104.680779 11.144459 -10.335981 -24.361835 42.075401 58.684284 105.778534
19 104.680779 11.144459 -10.335981 -20.399694 43.830383 64.493835 105.778534
[R_mid_hand02]
18 104.070427 2.443552 8.231699 59.930573 -60.321301 27.236141 104.424065
19 104.070427 2.443552 8.231699 55.242626 -64.206024 32.532070 104.424065
[R_mid_hand03]
18 106.028137 -11.221827 -5.996406 -174.631485 14.897616 -67.203407 106.788818
19 106.028137 -11.221827 -5.996406 -175.861618 15.275425 -71.940262 106.788818
[spine02]
18 129.756927 0.001550 0.000119 0.530016 -4.024931 -15.369446 129.756927
19 129.756927 0.001550 0.000119 0.524662 -4.025641 -15.286874 129.756927
[spine03]
18 78.613968 0.081635 -4.899012 1.998890 3.782508 18.002247 78.766502
19 78.613968 0.081635 -4.899012 1.995439 3.783727 17.947044 78.766502
[pelvis]
18 169.435242 0.051022 0.000000 -0.070208 -0.177785 17.188129 169.435257
19 169.435242 0.051022 0.000000 -0.070045 -0.177849 17.083111 169.435257
[null_rope03_connect]
18 -1.257226 -2.466202 137.391083 0.000000 -89.524803 58.940914 137.418976
19 -1.257226 -2.466202 137.391083 0.000000 -89.523170 59.025272 137.418976
[null_rope04_connect]
18 -1.259640 -2.480268 -137.844437 0.000000 -89.524803 58.940914 137.872513
19 -1.259640 -2.480268 -137.844437 0.000000 -89.523170 59.025272 137.872513
[Rope3_Seg01]
18 0.000010 0.000038 -0.000114 11.627995 22.683443 -94.396523 0.000121
19 0.000010 0.000038 -0.000114 10.568900 23.596060 -96.454338 0.000121
[Rope3_Seg02]
18 139.999924 -0.000119 0.000060 0.443049 -3.477380 -2.312764 139.999924
19 139.999924 -0.000119 0.000060 0.627666 -3.884101 -1.385463 139.999924
[Rope3_Seg03]
18 139.999924 -0.000119 0.000119 0.480157 -3.577269 -3.274599 139.999924
19 139.999924 -0.000119 0.000119 0.770695 -4.189102 -2.214160 139.999924
[Rope3_Seg04]
18 139.999924 0.000119 0.000000 -0.344941 -4.165573 -9.290186 139.999924
19 139.999924 0.000119 0.000000 0.455927 -5.580789 -8.286982 139.999924
[Rope3_Seg05]
18 139.999924 -0.000238 0.000060 2.715399 -2.401765 7.471348 139.999924
19 139.999924 -0.000238 0.000060 2.783915 -2.120414 8.314726 139.999924
[Rope3_Seg06]
18 139.999893 -0.000119 -0.000060 2.986262 0.379981 20.564236 139.999893
19 139.999893 -0.000119 -0.000060 2.732109 2.225109 19.881289 139.999893
[Rope3_Seg07]
18 139.999771 0.000060 -0.000119 0.507843 0.311591 10.741150 139.999771
19 139.999771 0.000060 -0.000119 0.504080 0.995893 9.805958 139.999771
[Rope3_Seg08]
18 139.999985 -0.000060 0.000000 0.135894 0.108701 5.775859 139.999985
19 139.999985 -0.000060 0.000000 0.201856 0.472535 5.321067 139.999985
[Rope3_Seg09]
18 90.185997 -0.000179 -0.000060 89.793228 -1.359877 -0.847183 90.185997
19 90.185997 -0.000179 -0.000060 89.793228 -1.359877 -0.847183 90.185997
[R_rear_hand01]
18 103.366196 -6.073594 -10.757982 -174.043228 23.976637 -65.002998 104.101845
19 103.366196 -6.073594 -10.757982 -175.914093 24.346796 -69.567566 104.101845
[R_rear_hand02]
18 100.509819 12.039542 -7.992327 -18.533085 34.659092 62.503902 101.543350
19 100.509819 12.039542 -7.992327 -15.704349 35.886925 67.395027 101.543350
[R_rear_hand03]
18 101.539970 5.215704 5.435467 76.952385 -63.971771 15.629117 101.819031
19 101.539970 5.215704 5.435467 74.640678 -68.020927 18.152246 101.819031
[Rope4_Seg01]
18 0.000010 0.000038 -0.000114 -92.247208 33.662067 -85.797462 0.000121
19 0.000010 0.000038 -0.000114 -92.228539 33.828426 -85.791740 0.000121
[Rope4_Seg02]
18 139.999985 0.000060 0.000119 -0.649715 0.181852 -7.547129 139.999985
19 139.999985 0.000060 0.000119 -0.660183 0.185165 -7.715699 139.999985
[Rope4_Seg03]
18 139.999924 0.000000 -0.000238 -1.051655 0.326714 -7.782291 139.999924
19 139.999924 0.000000 -0.000238 -1.087793 0.337290 -7.980829 139.999924
[Rope4_Seg04]
18 139.999985 0.000000 0.000119 -1.771935 1.990112 -8.699620 139.999985
19 139.999985 0.000000 0.000119 -1.844685 2.100061 -8.946017 139.999985
[Rope4_Seg05]
18 139.999802 -0.000060 -0.000119 -1.227771 -0.338985 -6.358524 139.999802
19 139.999802 -0.000060 -0.000119 -1.255950 -0.361629 -6.472151 139.999802
[Rope4_Seg06]
18 139.999924 0.000000 0.000060 -0.154003 -3.921727 -3.116011 139.999924
19 139.999924 0.000000 0.000060 -0.121968 -4.168420 -3.131931 139.999924
[Rope4_Seg07]
18 139.999802 0.000000 0.000000 -0.155955 -3.499957 -2.616243 139.999802
19 139.999802 0.000000 0.000000 -0.120169 -3.751583 -2.627152 139.999802
[Rope4_Seg08]
18 139.999924 0.000000 0.000119 -2.033186 -1.899574 -2.304793 139.999924
19 139.999924 0.000000 0.000119 -2.034904 -2.038647 -2.332029 139.999924
[Rope4_Seg09]
18 90.185791 0.000060 0.000060 -135.617828 2.228885 0.850567 90.185791
19 90.185791 0.000060 0.000060 -135.617828 2.228885 0.850567 90.185791
[L_rear_hand01]
18 101.696655 -8.392275 -7.654577 -13.354956 -36.717747 108.641342 102.329041
19 101.696655 -8.392275 -7.654577 -12.874829 -36.868488 107.832764 102.329041
[L_rear_hand02]
18 102.726799 -1.568258 5.773216 72.111618 71.190071 159.144638 102.900848
19 102.726799 -1.568258 5.773216 71.484581 71.816628 158.486160 102.900848
[L_rear_hand03]
18 104.552910 9.721220 -10.420293 -177.406540 -24.537506 -106.814919 105.519653
19 104.552910 9.721220 -10.420293 -177.714203 -24.565960 -106.089035 105.519653
